<mxfile host="Electron" agent="Mozilla/5.0 (X11; Linux x86_64) AppleWebKit/537.36 (KHTML, like Gecko) draw.io/27.0.9 Chrome/134.0.6998.205 Electron/35.4.0 Safari/537.36" version="27.0.9">
  <diagram id="HX36lXaqriUn2ncN6-zE" name="Page-1">
    <mxGraphModel dx="6531" dy="3360" grid="1" gridSize="10" guides="1" tooltips="1" connect="1" arrows="1" fold="1" page="1" pageScale="1" pageWidth="827" pageHeight="1169" math="0" shadow="0">
      <root>
        <mxCell id="0" />
        <mxCell id="1" parent="0" />
        <mxCell id="_uyz3dG6UiQZac79CJI6-48" value="" style="rounded=1;whiteSpace=wrap;html=1;labelBackgroundColor=none;labelBorderColor=none;fontFamily=Comic Sans MS;fontColor=default;fillColor=#CCFFFF;align=right;verticalAlign=middle;arcSize=3;sketch=1;fontSize=23;" parent="1" vertex="1">
          <mxGeometry x="-90" y="60" width="1720" height="860" as="geometry" />
        </mxCell>
        <mxCell id="aGN-Y-02uY2Eopvv15GC-8" value="Thread A" style="rounded=1;whiteSpace=wrap;html=1;labelBackgroundColor=none;sketch=1;fontColor=none;strokeColor=#00331A;fillColor=#E6E6E6;arcSize=6;dashed=1;verticalAlign=top;fontSize=30;fontStyle=1" parent="1" vertex="1">
          <mxGeometry x="-90" y="95" width="910" height="775" as="geometry" />
        </mxCell>
        <mxCell id="zUsX7mxIPClAFuxd-6kN-1" value="Thread B" style="rounded=1;whiteSpace=wrap;html=1;labelBackgroundColor=none;sketch=1;fontColor=none;strokeColor=#00331A;fillColor=#E6E6E6;arcSize=6;dashed=1;verticalAlign=top;fontSize=30;fontStyle=1" parent="1" vertex="1">
          <mxGeometry x="1050" y="95" width="580" height="775" as="geometry" />
        </mxCell>
        <mxCell id="pPYSLQJwQsg4qVi2y7TP-10" style="edgeStyle=orthogonalEdgeStyle;curved=1;jumpStyle=gap;orthogonalLoop=1;jettySize=auto;html=1;entryX=0;entryY=0.25;entryDx=0;entryDy=0;dashed=1;fontSize=30;fontColor=default;startArrow=none;startFill=0;align=center;verticalAlign=middle;" parent="1" source="pPYSLQJwQsg4qVi2y7TP-1" target="pPYSLQJwQsg4qVi2y7TP-2" edge="1">
          <mxGeometry relative="1" as="geometry" />
        </mxCell>
        <mxCell id="pPYSLQJwQsg4qVi2y7TP-11" style="edgeStyle=orthogonalEdgeStyle;curved=1;jumpStyle=gap;orthogonalLoop=1;jettySize=auto;html=1;exitX=0;exitY=0.75;exitDx=0;exitDy=0;entryX=1;entryY=0.5;entryDx=0;entryDy=0;dashed=1;fontSize=30;fontColor=default;startArrow=none;startFill=0;align=center;verticalAlign=middle;" parent="1" source="pPYSLQJwQsg4qVi2y7TP-2" target="pPYSLQJwQsg4qVi2y7TP-3" edge="1">
          <mxGeometry relative="1" as="geometry" />
        </mxCell>
        <mxCell id="pPYSLQJwQsg4qVi2y7TP-2" value="Coroutine 1" style="rounded=1;whiteSpace=wrap;html=1;fontSize=30;fontColor=default;align=center;verticalAlign=middle;fillColor=#99FF99;sketch=1;" parent="1" vertex="1">
          <mxGeometry x="1140" y="460" width="380" height="60" as="geometry" />
        </mxCell>
        <mxCell id="pPYSLQJwQsg4qVi2y7TP-14" style="edgeStyle=orthogonalEdgeStyle;curved=1;jumpStyle=gap;orthogonalLoop=1;jettySize=auto;html=1;dashed=1;fontSize=30;fontColor=default;startArrow=none;startFill=0;align=center;verticalAlign=middle;" parent="1" source="pPYSLQJwQsg4qVi2y7TP-3" edge="1">
          <mxGeometry relative="1" as="geometry">
            <mxPoint x="490" y="870" as="targetPoint" />
            <Array as="points">
              <mxPoint x="490" y="780" />
              <mxPoint x="490" y="780" />
            </Array>
          </mxGeometry>
        </mxCell>
        <mxCell id="pPYSLQJwQsg4qVi2y7TP-3" value="Coroutine 1" style="rounded=1;whiteSpace=wrap;html=1;fontSize=30;fontColor=default;align=center;verticalAlign=middle;fillColor=#99FF99;sketch=1;" parent="1" vertex="1">
          <mxGeometry x="300" y="680" width="380" height="60" as="geometry" />
        </mxCell>
        <mxCell id="pPYSLQJwQsg4qVi2y7TP-8" style="edgeStyle=orthogonalEdgeStyle;curved=1;jumpStyle=gap;orthogonalLoop=1;jettySize=auto;html=1;entryX=0;entryY=0.25;entryDx=0;entryDy=0;dashed=1;fontSize=30;fontColor=default;startArrow=none;startFill=0;align=center;verticalAlign=middle;" parent="1" source="pPYSLQJwQsg4qVi2y7TP-4" target="pPYSLQJwQsg4qVi2y7TP-5" edge="1">
          <mxGeometry relative="1" as="geometry" />
        </mxCell>
        <mxCell id="pPYSLQJwQsg4qVi2y7TP-4" value="Coroutine 2" style="rounded=1;whiteSpace=wrap;html=1;fontSize=30;fontColor=default;align=center;verticalAlign=middle;fillColor=#99FF99;sketch=1;" parent="1" vertex="1">
          <mxGeometry x="300" y="200" width="380" height="60" as="geometry" />
        </mxCell>
        <mxCell id="pPYSLQJwQsg4qVi2y7TP-9" style="edgeStyle=orthogonalEdgeStyle;curved=1;jumpStyle=gap;orthogonalLoop=1;jettySize=auto;html=1;entryX=1;entryY=0.5;entryDx=0;entryDy=0;dashed=1;fontSize=30;fontColor=default;startArrow=none;startFill=0;align=center;verticalAlign=middle;exitX=0;exitY=0.75;exitDx=0;exitDy=0;" parent="1" source="pPYSLQJwQsg4qVi2y7TP-5" target="pPYSLQJwQsg4qVi2y7TP-6" edge="1">
          <mxGeometry relative="1" as="geometry">
            <Array as="points">
              <mxPoint x="820" y="305" />
              <mxPoint x="820" y="320" />
              <mxPoint x="360" y="320" />
              <mxPoint x="360" y="381" />
            </Array>
          </mxGeometry>
        </mxCell>
        <mxCell id="pPYSLQJwQsg4qVi2y7TP-5" value="Coroutine 2" style="rounded=1;whiteSpace=wrap;html=1;fontSize=30;fontColor=default;align=center;verticalAlign=middle;fillColor=#99FF99;sketch=1;" parent="1" vertex="1">
          <mxGeometry x="1130" y="260" width="380" height="60" as="geometry" />
        </mxCell>
        <mxCell id="pPYSLQJwQsg4qVi2y7TP-17" style="edgeStyle=orthogonalEdgeStyle;curved=1;jumpStyle=gap;orthogonalLoop=1;jettySize=auto;html=1;entryX=0;entryY=0.5;entryDx=0;entryDy=0;dashed=1;fontSize=30;fontColor=default;startArrow=none;startFill=0;align=center;verticalAlign=middle;" parent="1" source="pPYSLQJwQsg4qVi2y7TP-6" target="pPYSLQJwQsg4qVi2y7TP-16" edge="1">
          <mxGeometry relative="1" as="geometry">
            <Array as="points">
              <mxPoint x="140" y="630" />
              <mxPoint x="990" y="630" />
              <mxPoint x="990" y="690" />
            </Array>
          </mxGeometry>
        </mxCell>
        <mxCell id="pPYSLQJwQsg4qVi2y7TP-6" value="Coroutine 2" style="rounded=1;whiteSpace=wrap;html=1;fontSize=30;fontColor=default;align=center;verticalAlign=middle;fillColor=#99FF99;sketch=1;" parent="1" vertex="1">
          <mxGeometry x="-50" y="350.5" width="380" height="60" as="geometry" />
        </mxCell>
        <mxCell id="pPYSLQJwQsg4qVi2y7TP-7" value="Time" style="endArrow=classic;html=1;dashed=1;fontSize=30;fontColor=default;align=center;verticalAlign=middle;curved=1;jumpStyle=gap;strokeWidth=6;" parent="1" edge="1">
          <mxGeometry width="50" height="50" relative="1" as="geometry">
            <mxPoint x="1654" y="142.5" as="sourcePoint" />
            <mxPoint x="1654" y="822.5" as="targetPoint" />
          </mxGeometry>
        </mxCell>
        <mxCell id="pPYSLQJwQsg4qVi2y7TP-18" style="edgeStyle=orthogonalEdgeStyle;curved=1;jumpStyle=gap;orthogonalLoop=1;jettySize=auto;html=1;dashed=1;fontSize=30;fontColor=default;startArrow=none;startFill=0;align=center;verticalAlign=middle;" parent="1" source="pPYSLQJwQsg4qVi2y7TP-16" edge="1">
          <mxGeometry relative="1" as="geometry">
            <mxPoint x="1340" y="870" as="targetPoint" />
            <Array as="points">
              <mxPoint x="1340" y="800" />
              <mxPoint x="1340" y="800" />
            </Array>
          </mxGeometry>
        </mxCell>
        <mxCell id="pPYSLQJwQsg4qVi2y7TP-16" value="Coroutine 2" style="rounded=1;whiteSpace=wrap;html=1;fontSize=30;fontColor=default;align=center;verticalAlign=middle;fillColor=#99FF99;sketch=1;" parent="1" vertex="1">
          <mxGeometry x="1150" y="660" width="380" height="60" as="geometry" />
        </mxCell>
        <mxCell id="pPYSLQJwQsg4qVi2y7TP-1" value="Coroutine 1" style="rounded=1;whiteSpace=wrap;html=1;fontSize=30;fontColor=default;align=center;verticalAlign=middle;fillColor=#99FF99;sketch=1;" parent="1" vertex="1">
          <mxGeometry x="410" y="410.5" width="380" height="60" as="geometry" />
        </mxCell>
        <mxCell id="pPYSLQJwQsg4qVi2y7TP-19" value="Time" style="endArrow=classic;html=1;dashed=1;fontSize=30;fontColor=default;align=center;verticalAlign=middle;curved=1;jumpStyle=gap;strokeWidth=6;" parent="1" edge="1">
          <mxGeometry width="50" height="50" relative="1" as="geometry">
            <mxPoint x="-110" y="150" as="sourcePoint" />
            <mxPoint x="-110" y="830" as="targetPoint" />
          </mxGeometry>
        </mxCell>
      </root>
    </mxGraphModel>
  </diagram>
</mxfile>
